# xmcd CD database file
#
# Track frame offsets:
#	182
#	14230
#	26905
#	41677
#	63357
#	72692
#	86502
#	101730
#	118710
#	134130
#
# Disc length: 1973 seconds
#
# Revision: 2
# Processed by: cddbd v1.4PL0 Copyright (c) Steve Scherf et al.
# Submitted via: CDex 1.40Release
#
DISCID=9c07b30a
DTITLE=Eddy Arnold - Greatest Songs
DYEAR=1900
DGENRE=Country
TTITLE0=There Goes My Everything
TTITLE1=Please Help Me I'm Falling
TTITLE2=Green, Green, Grass of Home
TTITLE3=Crying Time
TTITLE4=Blue, Blue Day
TTITLE5=Good Hearted Woman
TTITLE6=Blue Eyes Crying In the Rain
TTITLE7=Always On MY Mind
TTITLE8=You Needed Me
TTITLE9=Save the Last Dance for Me
EXTD=ID3G: 2
EXTT0=
EXTT1=
EXTT2=
EXTT3=
EXTT4=
EXTT5=
EXTT6=
EXTT7=
EXTT8=
EXTT9=
PLAYORDER=
